<?xml version="1.0" encoding="utf-8"?>
<!-- Generator: Adobe Illustrator 16.0.4, SVG Export Plug-In . SVG Version: 6.00 Build 0)  -->
<!DOCTYPE svg PUBLIC "-//W3C//DTD SVG 1.1//EN" "http://www.w3.org/Graphics/SVG/1.1/DTD/svg11.dtd">
<svg version="1.1" id="US_UK_Download_on_the" xmlns="http://www.w3.org/2000/svg" xmlns:xlink="http://www.w3.org/1999/xlink"
	 x="0px" y="0px" width="220.218px" height="65.25px" viewBox="0 0 220.218 65.25" enable-background="new 0 0 220.218 65.25"
	 xml:space="preserve">
<g>
	<path fill="#A6A6A6" d="M212.305,65.227H7.711C3.46,65.227,0,61.758,0,57.51V7.707C0,3.458,3.46,0,7.711,0h204.594
		c4.251,0,7.834,3.458,7.834,7.707V57.51C220.139,61.758,216.556,65.227,212.305,65.227L212.305,65.227z"/>
	<path d="M218.56,57.51c0,3.451-2.794,6.247-6.25,6.247H7.711c-3.455,0-6.26-2.796-6.26-6.247V7.706c0-3.45,2.805-6.255,6.26-6.255
		h204.594c3.461,0,6.254,2.805,6.254,6.255L218.56,57.51L218.56,57.51z"/>
	<g>
		<g>
			<path fill="#FFFFFF" d="M49.128,32.261c-0.047-5.255,4.303-7.812,4.502-7.932c-2.465-3.593-6.283-4.082-7.625-4.122
				c-3.208-0.338-6.318,1.917-7.953,1.917c-1.667,0-4.182-1.885-6.894-1.829c-3.491,0.053-6.754,2.072-8.544,5.211
				c-3.696,6.396-0.94,15.797,2.6,20.969c1.771,2.533,3.84,5.359,6.549,5.261c2.649-0.109,3.64-1.689,6.836-1.689
				c3.169,0,4.099,1.689,6.861,1.624c2.844-0.044,4.635-2.542,6.344-5.098c2.045-2.901,2.867-5.762,2.9-5.91
				C54.638,40.642,49.182,38.559,49.128,32.261z"/>
			<path fill="#FFFFFF" d="M43.911,16.806c1.424-1.783,2.399-4.207,2.129-6.668c-2.062,0.091-4.642,1.426-6.127,3.17
				c-1.314,1.536-2.488,4.053-2.185,6.422C40.044,19.902,42.423,18.56,43.911,16.806z"/>
		</g>
	</g>
	<g>
		<path fill="#FFFFFF" d="M87.478,51.371h-3.705l-2.028-6.375h-7.05l-1.934,6.375h-3.604l6.985-21.701h4.314L87.478,51.371z
			 M81.133,42.324l-1.835-5.665c-0.193-0.582-0.557-1.943-1.094-4.09h-0.065c-0.213,0.923-0.557,2.286-1.029,4.09l-1.803,5.665
			H81.133z"/>
		<path fill="#FFFFFF" d="M105.44,43.357c0,2.66-0.719,4.762-2.157,6.307c-1.288,1.375-2.888,2.061-4.797,2.061
			c-2.062,0-3.541-0.736-4.443-2.219h-0.064v8.242h-3.478V40.874c0-1.672-0.044-3.388-0.129-5.149h3.057l0.195,2.481h0.064
			c1.16-1.868,2.919-2.805,5.281-2.805c1.846,0,3.388,0.73,4.618,2.19C104.824,39.053,105.44,40.974,105.44,43.357z M101.899,43.481
			c0-1.521-0.342-2.776-1.031-3.765c-0.751-1.031-1.761-1.545-3.026-1.545c-0.856,0-1.636,0.285-2.333,0.854
			c-0.697,0.569-1.155,1.314-1.368,2.238c-0.107,0.43-0.161,0.782-0.161,1.06v2.609c0,1.138,0.349,2.098,1.046,2.882
			c0.698,0.784,1.604,1.175,2.72,1.175c1.311,0,2.33-0.506,3.058-1.511C101.534,46.468,101.899,45.135,101.899,43.481z"/>
		<path fill="#FFFFFF" d="M123.439,43.357c0,2.66-0.72,4.762-2.16,6.307c-1.286,1.375-2.885,2.061-4.796,2.061
			c-2.061,0-3.541-0.736-4.442-2.219h-0.065v8.242h-3.474V40.874c0-1.672-0.045-3.388-0.131-5.149h3.058l0.194,2.481h0.065
			c1.157-1.868,2.917-2.805,5.28-2.805c1.842,0,3.383,0.73,4.62,2.19C122.821,39.053,123.439,40.974,123.439,43.357z
			 M119.896,43.481c0-1.521-0.345-2.776-1.031-3.765c-0.751-1.031-1.758-1.545-3.025-1.545c-0.86,0-1.636,0.285-2.335,0.854
			c-0.699,0.569-1.154,1.314-1.367,2.238c-0.105,0.43-0.162,0.782-0.162,1.06v2.609c0,1.138,0.35,2.098,1.045,2.882
			c0.698,0.783,1.604,1.175,2.724,1.175c1.309,0,2.328-0.506,3.058-1.511C119.53,46.468,119.896,45.135,119.896,43.481z"/>
		<path fill="#FFFFFF" d="M143.561,45.285c0,1.849-0.639,3.35-1.926,4.51c-1.415,1.264-3.383,1.898-5.912,1.898
			c-2.336,0-4.206-0.45-5.624-1.352l0.806-2.898c1.525,0.924,3.2,1.387,5.025,1.387c1.308,0,2.329-0.295,3.06-0.89
			c0.732-0.588,1.093-1.381,1.093-2.367c0-0.88-0.298-1.623-0.9-2.227c-0.598-0.601-1.6-1.158-2.993-1.675
			c-3.8-1.418-5.698-3.496-5.698-6.226c0-1.782,0.666-3.245,1.998-4.384c1.328-1.139,3.099-1.708,5.312-1.708
			c1.975,0,3.614,0.343,4.925,1.029l-0.87,2.835c-1.223-0.666-2.604-0.998-4.152-0.998c-1.224,0-2.178,0.301-2.864,0.901
			c-0.579,0.535-0.869,1.189-0.869,1.966c0,0.857,0.331,1.566,0.997,2.124c0.58,0.515,1.63,1.074,3.158,1.675
			c1.867,0.753,3.235,1.632,4.118,2.638C143.122,42.528,143.561,43.786,143.561,45.285z"/>
		<path fill="#FFFFFF" d="M155.055,38.333h-3.831v7.598c0,1.932,0.677,2.896,2.03,2.896c0.619,0,1.136-0.051,1.543-0.16l0.096,2.642
			c-0.684,0.256-1.586,0.385-2.703,0.385c-1.374,0-2.446-0.42-3.221-1.257c-0.772-0.839-1.159-2.243-1.159-4.22v-7.885h-2.283v-2.61
			h2.283v-2.865l3.414-1.029v3.895h3.831V38.333z"/>
		<path fill="#FFFFFF" d="M172.347,43.419c0,2.404-0.689,4.38-2.062,5.926c-1.438,1.587-3.351,2.38-5.732,2.38
			c-2.297,0-4.126-0.761-5.488-2.282c-1.363-1.525-2.045-3.446-2.045-5.763c0-2.427,0.703-4.412,2.108-5.957
			c1.403-1.544,3.297-2.319,5.68-2.319c2.297,0,4.145,0.763,5.538,2.288C171.681,39.17,172.347,41.078,172.347,43.419z
			 M168.738,43.53c0-1.441-0.309-2.681-0.932-3.713c-0.73-1.25-1.773-1.869-3.123-1.869c-1.396,0-2.459,0.624-3.186,1.869
			c-0.628,1.034-0.935,2.293-0.935,3.78c0,1.442,0.307,2.679,0.935,3.71c0.75,1.249,1.801,1.875,3.156,1.875
			c1.326,0,2.368-0.639,3.121-1.907C168.416,46.225,168.738,44.973,168.738,43.53z"/>
		<path fill="#FFFFFF" d="M183.646,38.782c-0.344-0.064-0.71-0.097-1.096-0.097c-1.223,0-2.167,0.462-2.833,1.387
			c-0.582,0.816-0.871,1.844-0.871,3.09v8.209h-3.475l0.033-10.719c0-1.804-0.043-3.447-0.131-4.924h3.029l0.126,2.992h0.097
			c0.367-1.029,0.945-1.86,1.737-2.479c0.773-0.56,1.613-0.84,2.514-0.84c0.321,0,0.612,0.023,0.869,0.065V38.782z"/>
		<path fill="#FFFFFF" d="M199.193,42.809c0,0.62-0.039,1.147-0.126,1.576h-10.432c0.043,1.546,0.546,2.729,1.514,3.546
			c0.879,0.727,2.017,1.092,3.412,1.092c1.543,0,2.955-0.246,4.219-0.739l0.547,2.413c-1.481,0.645-3.23,0.966-5.248,0.966
			c-2.427,0-4.33-0.713-5.717-2.141c-1.382-1.427-2.075-3.344-2.075-5.748c0-2.356,0.646-4.323,1.934-5.889
			c1.352-1.675,3.174-2.511,5.472-2.511c2.255,0,3.963,0.836,5.124,2.511C198.731,39.213,199.193,40.855,199.193,42.809z
			 M195.88,41.906c0.022-1.032-0.206-1.92-0.678-2.671c-0.6-0.97-1.523-1.452-2.769-1.452c-1.138,0-2.061,0.472-2.77,1.418
			c-0.577,0.751-0.922,1.654-1.028,2.704L195.88,41.906L195.88,41.906z"/>
	</g>
	<g>
		<g>
			<path fill="#FFFFFF" d="M79.982,16.321c0,1.919-0.574,3.365-1.725,4.334C77.193,21.55,75.681,22,73.72,22
				c-0.973,0-1.804-0.043-2.5-0.128V11.385c0.908-0.146,1.888-0.221,2.942-0.221c1.869,0,3.275,0.406,4.225,1.217
				C79.451,13.3,79.982,14.612,79.982,16.321z M78.182,16.368c0-1.244-0.329-2.198-0.988-2.863
				c-0.659-0.664-1.621-0.996-2.889-0.996c-0.538,0-0.996,0.036-1.375,0.111v7.972c0.21,0.032,0.594,0.048,1.154,0.048
				c1.308,0,2.317-0.364,3.028-1.092C77.822,18.821,78.182,17.761,78.182,16.368z"/>
			<path fill="#FFFFFF" d="M89.538,17.998c0,1.183-0.338,2.15-1.015,2.911c-0.706,0.78-1.645,1.171-2.814,1.171
				c-1.128,0-2.026-0.374-2.696-1.123c-0.669-0.749-1.005-1.693-1.005-2.831c0-1.191,0.345-2.167,1.037-2.926
				c0.691-0.757,1.619-1.137,2.791-1.137c1.129,0,2.035,0.373,2.721,1.122C89.21,15.91,89.538,16.85,89.538,17.998z M87.765,18.053
				c0-0.71-0.152-1.316-0.458-1.824c-0.359-0.613-0.869-0.92-1.533-0.92c-0.686,0-1.208,0.307-1.565,0.92
				c-0.308,0.508-0.459,1.125-0.459,1.854c0,0.71,0.152,1.318,0.459,1.825c0.369,0.614,0.884,0.921,1.549,0.921
				c0.652,0,1.165-0.312,1.532-0.937C87.606,19.375,87.765,18.762,87.765,18.053z"/>
			<path fill="#FFFFFF" d="M102.349,14.217l-2.406,7.688h-1.564l-0.996-3.339c-0.254-0.833-0.459-1.66-0.619-2.483h-0.03
				c-0.148,0.844-0.354,1.671-0.619,2.483l-1.058,3.339h-1.583l-2.261-7.688h1.756l0.868,3.655c0.211,0.865,0.384,1.688,0.522,2.467
				h0.03c0.128-0.642,0.337-1.461,0.635-2.452l1.09-3.668h1.393l1.047,3.591c0.252,0.875,0.456,1.719,0.615,2.531h0.048
				c0.115-0.791,0.29-1.633,0.521-2.531l0.933-3.591h1.679V14.217z"/>
			<path fill="#FFFFFF" d="M111.208,21.905h-1.709v-4.404c0-1.357-0.516-2.035-1.549-2.035c-0.509,0-0.917,0.186-1.235,0.559
				c-0.314,0.374-0.474,0.815-0.474,1.317v4.56h-1.709v-5.488c0-0.676-0.022-1.408-0.062-2.201h1.501l0.08,1.203h0.048
				c0.199-0.374,0.496-0.682,0.885-0.929c0.463-0.287,0.982-0.432,1.551-0.432c0.717,0,1.313,0.232,1.789,0.697
				c0.589,0.569,0.885,1.418,0.885,2.547V21.905z"/>
			<path fill="#FFFFFF" d="M115.921,21.905h-1.708V10.69h1.708V21.905z"/>
			<path fill="#FFFFFF" d="M125.98,17.998c0,1.183-0.338,2.15-1.012,2.911c-0.709,0.78-1.646,1.171-2.816,1.171
				c-1.132,0-2.027-0.374-2.699-1.123c-0.668-0.749-1.002-1.693-1.002-2.831c0-1.191,0.344-2.167,1.036-2.926
				c0.692-0.757,1.622-1.137,2.79-1.137c1.13,0,2.034,0.373,2.723,1.122C125.652,15.91,125.98,16.85,125.98,17.998z M124.206,18.053
				c0-0.71-0.152-1.316-0.458-1.824c-0.358-0.613-0.869-0.92-1.531-0.92c-0.689,0-1.208,0.307-1.568,0.92
				c-0.304,0.508-0.457,1.125-0.457,1.854c0,0.71,0.154,1.318,0.457,1.825c0.371,0.614,0.889,0.921,1.552,0.921
				c0.653,0,1.162-0.312,1.531-0.937C124.052,19.375,124.206,18.762,124.206,18.053z"/>
			<path fill="#FFFFFF" d="M134.252,21.905h-1.535l-0.129-0.886h-0.044c-0.526,0.706-1.274,1.06-2.249,1.06
				c-0.724,0-1.311-0.233-1.752-0.696c-0.402-0.42-0.602-0.944-0.602-1.565c0-0.94,0.391-1.656,1.179-2.152
				c0.784-0.495,1.892-0.739,3.314-0.727v-0.145c0-1.012-0.53-1.518-1.597-1.518c-0.759,0-1.427,0.19-2.003,0.569l-0.348-1.12
				c0.713-0.444,1.594-0.665,2.635-0.665c2.013,0,3.019,1.06,3.019,3.18v2.831C134.141,20.841,134.178,21.452,134.252,21.905z
				 M132.478,19.263v-1.186c-1.887-0.033-2.827,0.484-2.827,1.549c0,0.401,0.107,0.701,0.328,0.902
				c0.218,0.2,0.499,0.301,0.833,0.301c0.377,0,0.727-0.119,1.046-0.356c0.32-0.239,0.517-0.54,0.591-0.911
				C132.469,19.479,132.478,19.379,132.478,19.263z"/>
			<path fill="#FFFFFF" d="M143.963,21.905h-1.518l-0.077-1.234h-0.05c-0.483,0.938-1.309,1.408-2.468,1.408
				c-0.927,0-1.696-0.365-2.308-1.091c-0.613-0.728-0.919-1.671-0.919-2.831c0-1.244,0.333-2.252,0.999-3.022
				c0.641-0.718,1.433-1.075,2.372-1.075c1.031,0,1.753,0.347,2.164,1.043h0.034V10.69h1.709v9.143
				C143.902,20.582,143.921,21.271,143.963,21.905z M142.193,18.663v-1.282c0-0.221-0.018-0.401-0.05-0.538
				c-0.096-0.41-0.303-0.757-0.616-1.036c-0.32-0.28-0.702-0.419-1.145-0.419c-0.636,0-1.138,0.252-1.504,0.761
				c-0.363,0.506-0.549,1.154-0.549,1.945c0,0.76,0.177,1.375,0.527,1.85c0.369,0.506,0.868,0.758,1.494,0.758
				c0.558,0,1.008-0.21,1.351-0.631C142.028,19.68,142.193,19.211,142.193,18.663z"/>
			<path fill="#FFFFFF" d="M158.577,17.998c0,1.183-0.337,2.15-1.013,2.911c-0.708,0.78-1.642,1.171-2.814,1.171
				c-1.128,0-2.025-0.374-2.699-1.123c-0.668-0.749-1.003-1.693-1.003-2.831c0-1.191,0.346-2.167,1.036-2.926
				c0.692-0.757,1.622-1.137,2.793-1.137c1.128,0,2.035,0.373,2.72,1.122C158.249,15.91,158.577,16.85,158.577,17.998z
				 M156.807,18.053c0-0.71-0.152-1.316-0.46-1.824c-0.359-0.613-0.868-0.92-1.533-0.92c-0.686,0-1.205,0.307-1.569,0.92
				c-0.303,0.508-0.455,1.125-0.455,1.854c0,0.71,0.153,1.318,0.455,1.825c0.372,0.614,0.888,0.921,1.553,0.921
				c0.654,0,1.167-0.312,1.535-0.937C156.647,19.375,156.807,18.762,156.807,18.053z"/>
			<path fill="#FFFFFF" d="M167.765,21.905h-1.706v-4.404c0-1.357-0.517-2.035-1.551-2.035c-0.505,0-0.915,0.186-1.232,0.559
				c-0.313,0.374-0.474,0.815-0.474,1.317v4.56h-1.712v-5.488c0-0.676-0.018-1.408-0.061-2.201h1.5l0.08,1.203h0.047
				c0.201-0.374,0.498-0.682,0.888-0.929c0.464-0.287,0.979-0.432,1.55-0.432c0.717,0,1.312,0.232,1.787,0.697
				c0.592,0.569,0.884,1.418,0.884,2.547V21.905z"/>
			<path fill="#FFFFFF" d="M179.267,15.497h-1.88v3.735c0,0.948,0.332,1.423,0.996,1.423c0.306,0,0.559-0.025,0.76-0.08l0.044,1.297
				c-0.337,0.128-0.779,0.19-1.326,0.19c-0.675,0-1.2-0.205-1.58-0.616c-0.383-0.411-0.572-1.102-0.572-2.073v-3.876h-1.124v-1.28
				h1.124v-1.409l1.677-0.504v1.912h1.882V15.497L179.267,15.497z"/>
			<path fill="#FFFFFF" d="M188.313,21.905h-1.709v-4.371c0-1.378-0.516-2.068-1.548-2.068c-0.791,0-1.336,0.399-1.631,1.199
				c-0.052,0.169-0.08,0.375-0.08,0.616v4.622h-1.707V10.69h1.707v4.633h0.031c0.539-0.843,1.31-1.264,2.31-1.264
				c0.707,0,1.293,0.231,1.76,0.696c0.578,0.578,0.867,1.439,0.867,2.578V21.905z"/>
			<path fill="#FFFFFF" d="M197.646,17.697c0,0.307-0.021,0.565-0.062,0.775h-5.126c0.024,0.76,0.27,1.338,0.743,1.739
				c0.433,0.36,0.992,0.54,1.678,0.54c0.76,0,1.451-0.121,2.07-0.364l0.269,1.188c-0.728,0.315-1.588,0.473-2.579,0.473
				c-1.19,0-2.129-0.349-2.808-1.051c-0.681-0.7-1.02-1.641-1.02-2.822c0-1.159,0.317-2.125,0.95-2.895
				c0.664-0.822,1.557-1.232,2.689-1.232c1.103,0,1.943,0.41,2.511,1.232C197.42,15.932,197.646,16.739,197.646,17.697z
				 M196.017,17.256c0.011-0.507-0.099-0.944-0.331-1.313c-0.298-0.475-0.749-0.712-1.36-0.712c-0.558,0-1.013,0.232-1.361,0.696
				c-0.282,0.371-0.451,0.812-0.507,1.329H196.017z"/>
		</g>
	</g>
</g>
</svg>
