<?xml version="1.0" encoding="utf-8"?>
<!-- Generator: Adobe Illustrator 16.0.4, SVG Export Plug-In . SVG Version: 6.00 Build 0)  -->
<!DOCTYPE svg PUBLIC "-//W3C//DTD SVG 1.1//EN" "http://www.w3.org/Graphics/SVG/1.1/DTD/svg11.dtd">
<svg version="1.1" id="Layer_1" xmlns="http://www.w3.org/2000/svg" xmlns:xlink="http://www.w3.org/1999/xlink" x="0px" y="0px"
	 width="1037px" height="1000px" viewBox="0 0 1037 1000" enable-background="new 0 0 1037 1000" xml:space="preserve">
<path fill="#A561A7" d="M0,788V212c0-0.667,1-7,3-19l339,290L4,808C1.333,798.667,0,792,0,788z M45,153c4.667-2,10.333-3,17-3h913
	c6,0,12,1,18,3L653,444l-45,36l-89,73l-89-73l-45-36L45,153z M46,847l341-327l132,107l132-107l341,327c-5.333,2-11,3-17,3H62
	C56.667,850,51.333,849,46,847z M696,483l338-290c2,6,3,12.333,3,19v576c0,6-1,12.667-3,20L696,483z"/>
</svg>
