<?xml version="1.0" encoding="utf-8"?>
<!-- Generator: Adobe Illustrator 16.0.4, SVG Export Plug-In . SVG Version: 6.00 Build 0)  -->
<!DOCTYPE svg PUBLIC "-//W3C//DTD SVG 1.1//EN" "http://www.w3.org/Graphics/SVG/1.1/DTD/svg11.dtd">
<svg version="1.1" id="SemiBold" xmlns="http://www.w3.org/2000/svg" xmlns:xlink="http://www.w3.org/1999/xlink" x="0px" y="0px"
	 width="189.288px" height="65.344px" viewBox="6.628 7.632 189.288 65.344" enable-background="new 6.628 7.632 189.288 65.344"
	 xml:space="preserve">
<path stroke="#FFFFFF" stroke-width="0.8" stroke-miterlimit="10" d="M195.516,63.289c0,5.726-4.209,9.287-9.927,9.287H17.394
	c-5.725,0-10.366-4.646-10.366-10.372V18.4c0-5.725,4.641-10.368,10.366-10.368h168.195c5.718,0,9.927,4.644,9.927,10.368V63.289z"
	/>
<g>
	<g>
		<path fill="#FFFFFF" d="M135.84,54.361l-1.416,1.334c-0.326,0.182-0.65,0.389-0.976,0.536c-0.984,0.446-1.982,0.56-2.871,0.56
			c-0.946,0-2.427-0.062-3.938-1.155c-2.1-1.48-3.018-4.022-3.018-6.238c0-4.586,3.734-6.836,6.78-6.836
			c1.064,0,2.158,0.267,3.048,0.829c1.477,0.978,1.859,2.248,2.072,2.93l-6.955,2.81l-2.278,0.178
			c0.735,3.76,3.28,5.948,6.094,5.948c1.405,0,2.445-0.459,3.404-0.932C135.786,54.324,135.976,54.225,135.84,54.361z
			 M131.644,46.879c0.564-0.206,0.857-0.385,0.857-0.794c0-1.182-1.336-2.548-2.933-2.548c-1.183,0-3.4,0.921-3.4,4.117
			c0,0.499,0.058,1.033,0.087,1.563L131.644,46.879z"/>
		<path fill="#FFFFFF" d="M121.294,54.131c0,1.15,0.206,1.33,1.178,1.419c0.507,0.06,1.012,0.086,1.514,0.146l-1.094,0.652h-5.216
			c0.686-0.887,0.803-0.977,0.803-1.567v-0.661l-0.011-17.592h-2.304l2.217-1.068h4.229c-0.915,0.531-1.191,0.855-1.309,1.89
			L121.294,54.131z"/>
		<path fill="#FFFFFF" d="M113.208,44.013c0.679,0.559,2.099,1.744,2.099,3.993c0,2.192-1.237,3.224-2.482,4.202
			c-0.382,0.383-0.829,0.801-0.829,1.448c0,0.654,0.448,1.007,0.769,1.273l1.069,0.825c1.3,1.096,2.482,2.102,2.482,4.146
			c0,2.784-2.692,5.59-7.783,5.59c-4.288,0-6.362-2.042-6.362-4.23c0-1.067,0.53-2.577,2.281-3.608
			c1.834-1.122,4.321-1.272,5.651-1.36c-0.417-0.535-0.889-1.097-0.889-2.016c0-0.5,0.15-0.801,0.295-1.153
			c-0.324,0.032-0.65,0.063-0.948,0.063c-3.137,0-4.912-2.343-4.912-4.648c0-1.362,0.62-2.871,1.896-3.965
			c1.687-1.389,3.699-1.629,5.296-1.629h6.097l-1.895,1.07H113.208L113.208,44.013z M111.111,57.149
			c-0.242-0.031-0.387-0.031-0.681-0.031c-0.267,0-1.867,0.058-3.105,0.473c-0.655,0.241-2.549,0.948-2.549,3.052
			c0,2.095,2.044,3.608,5.208,3.608c2.84,0,4.348-1.362,4.348-3.196C114.331,59.545,113.355,58.749,111.111,57.149z M111.961,51.528
			c0.685-0.683,0.744-1.627,0.744-2.164c0-2.128-1.269-5.442-3.728-5.442c-0.768,0-1.598,0.384-2.07,0.98
			c-0.5,0.616-0.65,1.417-0.65,2.185c0,1.982,1.155,5.27,3.698,5.27C110.696,52.356,111.494,51.994,111.961,51.528z"/>
		<path fill="#FFFFFF" d="M94.862,56.729c-4.704,0-7.22-3.662-7.22-6.978c0-3.875,3.165-7.19,7.664-7.19
			c4.35,0,7.075,3.405,7.075,6.982C102.38,53.035,99.688,56.729,94.862,56.729z M98.563,54.336c0.715-0.947,0.889-2.128,0.889-3.28
			c0-2.606-1.242-7.577-4.911-7.577c-0.977,0-1.959,0.382-2.667,1.005c-1.156,1.035-1.362,2.336-1.362,3.611
			c0,2.925,1.444,7.747,5.031,7.747C96.7,55.843,97.881,55.281,98.563,54.336z"/>
		<path fill="#FFFFFF" d="M79.115,56.729c-4.704,0-7.216-3.662-7.216-6.978c0-3.875,3.164-7.19,7.662-7.19
			c4.348,0,7.07,3.405,7.07,6.982C86.631,53.035,83.94,56.729,79.115,56.729z M82.815,54.336c0.71-0.947,0.888-2.128,0.888-3.28
			c0-2.606-1.246-7.577-4.912-7.577c-0.979,0-1.953,0.382-2.662,1.005c-1.157,1.035-1.363,2.336-1.363,3.611
			c0,2.925,1.45,7.747,5.031,7.747C80.953,55.843,82.133,55.281,82.815,54.336z"/>
		<path fill="#FFFFFF" d="M70.017,55.703l-3.966,0.908c-1.607,0.253-3.051,0.477-4.58,0.477c-7.653,0-10.567-5.633-10.567-10.039
			c0-5.385,4.131-10.375,11.205-10.375c1.496,0,2.938,0.22,4.25,0.577c2.079,0.584,3.05,1.303,3.659,1.727l-2.304,2.188
			l-0.971,0.218l0.692-1.106c-0.939-0.916-2.663-2.606-5.936-2.606c-4.377,0-7.68,3.326-7.68,8.184
			c0,5.216,3.771,10.123,9.816,10.123c1.776,0,2.69-0.355,3.522-0.689v-4.473l-4.189,0.227l2.221-1.193h5.877l-0.718,0.693
			c-0.194,0.163-0.22,0.219-0.274,0.439c-0.028,0.254-0.055,1.057-0.055,1.339v3.383H70.017z"/>
	</g>
	<g>
		<path fill="#FFFFFF" d="M144.368,54.487v7.537h-1.494V42.845h1.494v2.184c0.977-1.411,2.758-2.531,4.827-2.531
			c3.714,0,6.213,2.816,6.213,7.274c0,4.426-2.499,7.302-6.213,7.302C147.24,57.075,145.491,56.068,144.368,54.487z M153.8,49.774
			c0-3.362-1.752-5.923-4.858-5.923c-1.926,0-3.771,1.515-4.573,2.836v6.141c0.803,1.322,2.647,2.894,4.573,2.894
			C152.048,55.722,153.8,53.136,153.8,49.774z"/>
		<path fill="#FFFFFF" d="M157.453,56.728V37.55h1.493v19.177H157.453z"/>
		<path fill="#FFFFFF" d="M175.742,60.784c0.319,0.14,0.866,0.23,1.212,0.23c0.918,0,1.554-0.374,2.126-1.698l1.095-2.471l-5.898-14
			h1.67l5.058,12.129l5.008-12.129h1.694l-7.19,16.937c-0.747,1.744-1.919,2.584-3.531,2.584c-0.486,0-1.124-0.088-1.499-0.201
			L175.742,60.784z"/>
		<path fill="#FFFFFF" d="M171.369,56.687c-0.099-0.48-0.176-0.904-0.231-1.26c-0.045-0.354-0.071-0.715-0.071-1.082
			c-0.514,0.754-1.238,1.381-2.168,1.875c-0.929,0.495-1.811,0.741-3.024,0.741c-1.456,0-2.59-0.359-3.398-1.087
			c-0.804-0.729-1.209-1.712-1.209-2.958c0-1.244,0.586-2.254,1.757-3.026c1.169-0.776,2.68-1.164,4.551-1.164h3.492v-1.723
			c0-0.993-0.339-1.773-1.015-2.34c-0.68-0.567-1.63-0.855-2.866-0.855c-1.129,0-2.044,0.261-2.742,0.773
			c-0.689,0.521-1.038,1.167-1.038,1.946h-1.531l-0.031-0.077c-0.058-1.046,0.423-1.968,1.443-2.761
			c1.014-0.793,2.346-1.193,3.983-1.193c1.631,0,2.952,0.394,3.947,1.178c0.996,0.775,1.494,1.897,1.494,3.364v6.85
			c0,0.49,0.022,0.965,0.083,1.43c0.065,0.463,0.165,0.927,0.3,1.373h-1.725V56.687z M166.059,55.595
			c1.271,0,2.187-0.281,3.121-0.846c0.928-0.557,1.557-1.287,1.889-2.169v-2.665h-3.507c-1.341,0-2.448,0.295-3.321,0.895
			c-0.875,0.597-1.318,1.317-1.318,2.158c0,0.791,0.279,1.424,0.839,1.902C164.317,55.354,165.082,55.595,166.059,55.595z"/>
	</g>
</g>
<g>
	<polygon fill="none" points="31.36,48.989 36.161,44.188 36.159,44.188 31.36,48.989 16.034,33.667 16.034,33.667 31.36,48.993 
		16.009,64.344 16.009,64.344 31.36,48.993 36.182,53.816 36.184,53.816 	"/>
	
		<linearGradient id="SVGID_1_" gradientUnits="userSpaceOnUse" x1="704.9766" y1="764.668" x2="684.7424" y2="777.3313" gradientTransform="matrix(0.7071 0.7071 0.7071 -0.7071 -1011.0563 89.9649)">
		<stop  offset="0" style="stop-color:#D6FFA1"/>
		<stop  offset="0.3264" style="stop-color:#93E2A7"/>
		<stop  offset="1" style="stop-color:#00A3B5"/>
	</linearGradient>
	<path fill="url(#SVGID_1_)" d="M36.159,44.188L17.451,33.901c-0.529-0.29-1.02-0.357-1.417-0.234L31.36,48.989L36.159,44.188z"/>
	
		<linearGradient id="SVGID_2_" gradientUnits="userSpaceOnUse" x1="693.2129" y1="775.4863" x2="719.4489" y2="768.6278" gradientTransform="matrix(0.7071 0.7071 0.7071 -0.7071 -1011.0563 89.9649)">
		<stop  offset="0" style="stop-color:#FF177B"/>
		<stop  offset="0.6721" style="stop-color:#FFA976"/>
		<stop  offset="1" style="stop-color:#FFEC73"/>
	</linearGradient>
	<path fill="url(#SVGID_2_)" d="M36.184,53.816l6.386-3.513c1.296-0.717,1.296-1.878,0-2.59l-6.411-3.526l-4.801,4.801
		L36.184,53.816z"/>
	
		<linearGradient id="SVGID_3_" gradientUnits="userSpaceOnUse" x1="707.8584" y1="755.0625" x2="679.4079" y2="771.8011" gradientTransform="matrix(0.7071 0.7071 0.7071 -0.7071 -1011.0563 89.9649)">
		<stop  offset="0" style="stop-color:#63FFD4"/>
		<stop  offset="0.4854" style="stop-color:#32A0BA"/>
		<stop  offset="0.8349" style="stop-color:#1262A9"/>
		<stop  offset="1" style="stop-color:#064AA2"/>
	</linearGradient>
	<path fill="url(#SVGID_3_)" d="M16.034,33.667c-0.57,0.179-0.937,0.754-0.937,1.626l0.002,27.431c0,0.86,0.357,1.43,0.91,1.619
		L31.36,48.993L16.034,33.667z"/>
	
		<linearGradient id="SVGID_4_" gradientUnits="userSpaceOnUse" x1="718.1865" y1="768.3516" x2="700.6685" y2="745.2725" gradientTransform="matrix(0.7071 0.7071 0.7071 -0.7071 -1011.0563 89.9649)">
		<stop  offset="0" style="stop-color:#FF4521"/>
		<stop  offset="0.3411" style="stop-color:#D43E65"/>
		<stop  offset="0.7935" style="stop-color:#9F36B9"/>
		<stop  offset="1" style="stop-color:#8A33DB"/>
	</linearGradient>
	<path fill="url(#SVGID_4_)" d="M16.009,64.344c0.398,0.136,0.898,0.071,1.441-0.228l18.732-10.3l-4.822-4.823L16.009,64.344z"/>
</g>
<g>
	<g>
		<path fill="#FFFFFF" d="M50.867,21.818c0-2.947,2.19-4.842,4.913-4.842c1.825,0,3.017,0.871,3.762,1.937l-1.333,0.774
			c-0.506-0.703-1.391-1.25-2.429-1.25c-1.851,0-3.229,1.405-3.229,3.382c0,1.952,1.376,3.382,3.229,3.382
			c0.955,0,1.796-0.435,2.216-0.842v-1.445H55.19v-1.446h4.436v3.494c-0.913,1.026-2.232,1.713-3.846,1.713
			C53.057,26.675,50.867,24.752,50.867,21.818z"/>
		<path fill="#FFFFFF" d="M61.658,26.493V17.13h6.413v1.447h-4.772v2.413h4.675v1.445h-4.675v2.611h4.772v1.446L61.658,26.493
			L61.658,26.493z"/>
		<path fill="#FFFFFF" d="M72.615,26.493v-7.916H69.78v-1.445h7.312v1.445h-2.834v7.916H72.615z"/>
		<path fill="#FFFFFF" d="M82.8,26.493V17.13h1.641v9.363H82.8z"/>
		<path fill="#FFFFFF" d="M89.015,26.493v-7.916H86.18v-1.445h7.312v1.445h-2.835v7.916H89.015z"/>
		<path fill="#FFFFFF" d="M98.793,21.818c0-2.793,1.978-4.842,4.786-4.842c2.794,0,4.787,2.049,4.787,4.842
			c0,2.794-1.993,4.842-4.787,4.842C100.771,26.66,98.793,24.612,98.793,21.818z M106.682,21.818c0-1.937-1.222-3.382-3.103-3.382
			c-1.895,0-3.101,1.445-3.101,3.382c0,1.922,1.207,3.382,3.101,3.382C105.459,25.201,106.682,23.741,106.682,21.818z"/>
		<path fill="#FFFFFF" d="M116.81,26.493l-4.883-6.695v6.695h-1.642V17.13h1.685l4.786,6.486V17.13h1.644v9.363H116.81z"/>
	</g>
</g>
</svg>
