<?xml version="1.0" encoding="utf-8"?>
<!-- Generator: Adobe Illustrator 16.0.4, SVG Export Plug-In . SVG Version: 6.00 Build 0)  -->
<!DOCTYPE svg PUBLIC "-//W3C//DTD SVG 1.1//EN" "http://www.w3.org/Graphics/SVG/1.1/DTD/svg11.dtd">
<svg version="1.1" id="SemiBold" xmlns="http://www.w3.org/2000/svg" xmlns:xlink="http://www.w3.org/1999/xlink" x="0px" y="0px"
	 width="189.289px" height="65.344px" viewBox="0 0 189.289 65.344" enable-background="new 0 0 189.289 65.344"
	 xml:space="preserve">
<path stroke="#FFFFFF" stroke-width="0.8" stroke-miterlimit="10" d="M188.888,55.585c0,5.727-4.209,9.287-9.927,9.287H10.766
	C5.041,64.872,0.4,60.226,0.4,54.501V10.696c0-5.725,4.641-10.368,10.366-10.368h168.195c5.718,0,9.927,4.644,9.927,10.368V55.585z"
	/>
<g>
	<g>
		<path fill="#FFFFFF" d="M129.211,46.657l-1.416,1.334c-0.325,0.182-0.649,0.389-0.975,0.535c-0.984,0.447-1.982,0.561-2.871,0.561
			c-0.947,0-2.428-0.062-3.938-1.154c-2.101-1.48-3.019-4.021-3.019-6.238c0-4.586,3.734-6.836,6.78-6.836
			c1.063,0,2.158,0.268,3.048,0.828c1.477,0.979,1.859,2.248,2.072,2.93l-6.955,2.811l-2.277,0.178
			c0.734,3.76,3.279,5.949,6.094,5.949c1.404,0,2.445-0.459,3.404-0.932C129.159,46.62,129.348,46.521,129.211,46.657z
			 M125.016,39.175c0.564-0.205,0.857-0.385,0.857-0.793c0-1.184-1.336-2.549-2.934-2.549c-1.184,0-3.4,0.922-3.4,4.117
			c0,0.498,0.059,1.033,0.088,1.562L125.016,39.175z"/>
		<path fill="#FFFFFF" d="M114.667,46.427c0,1.15,0.205,1.33,1.178,1.42c0.507,0.059,1.012,0.086,1.514,0.145l-1.094,0.652h-5.217
			c0.687-0.887,0.804-0.977,0.804-1.566v-0.66l-0.011-17.594h-2.305l2.217-1.067h4.229c-0.915,0.531-1.19,0.854-1.31,1.89
			L114.667,46.427z"/>
		<path fill="#FFFFFF" d="M106.581,36.31c0.679,0.559,2.099,1.744,2.099,3.992c0,2.193-1.237,3.225-2.481,4.203
			c-0.383,0.383-0.83,0.801-0.83,1.447c0,0.654,0.448,1.008,0.77,1.273l1.068,0.824c1.301,1.096,2.482,2.102,2.482,4.146
			c0,2.783-2.691,5.59-7.783,5.59c-4.287,0-6.361-2.041-6.361-4.23c0-1.066,0.529-2.576,2.281-3.607
			c1.834-1.123,4.32-1.271,5.65-1.359c-0.417-0.535-0.889-1.098-0.889-2.018c0-0.5,0.149-0.801,0.295-1.152
			c-0.324,0.033-0.65,0.062-0.948,0.062c-3.138,0-4.912-2.342-4.912-4.646c0-1.363,0.62-2.871,1.896-3.965
			c1.688-1.391,3.699-1.631,5.297-1.631h6.097l-1.896,1.07H106.581L106.581,36.31z M104.483,49.444
			c-0.242-0.029-0.387-0.029-0.681-0.029c-0.267,0-1.867,0.057-3.104,0.473c-0.656,0.24-2.55,0.947-2.55,3.051
			c0,2.096,2.044,3.609,5.208,3.609c2.84,0,4.348-1.363,4.348-3.197C107.704,51.841,106.727,51.046,104.483,49.444z M105.333,43.823
			c0.686-0.682,0.744-1.627,0.744-2.162c0-2.129-1.269-5.443-3.728-5.443c-0.769,0-1.599,0.385-2.069,0.98
			c-0.5,0.615-0.65,1.416-0.65,2.186c0,1.98,1.154,5.27,3.697,5.27C104.068,44.651,104.866,44.29,105.333,43.823z"/>
		<path fill="#FFFFFF" d="M88.234,49.024c-4.704,0-7.22-3.662-7.22-6.977c0-3.875,3.165-7.191,7.664-7.191
			c4.35,0,7.074,3.406,7.074,6.982C95.752,45.331,93.06,49.024,88.234,49.024z M91.935,46.632c0.715-0.947,0.89-2.127,0.89-3.279
			c0-2.605-1.242-7.578-4.912-7.578c-0.977,0-1.959,0.383-2.667,1.006c-1.156,1.035-1.362,2.336-1.362,3.611
			c0,2.924,1.444,7.746,5.03,7.746C90.073,48.14,91.252,47.577,91.935,46.632z"/>
		<path fill="#FFFFFF" d="M72.487,49.024c-4.704,0-7.216-3.662-7.216-6.977c0-3.875,3.164-7.191,7.662-7.191
			c4.348,0,7.07,3.406,7.07,6.982C80.003,45.331,77.312,49.024,72.487,49.024z M76.187,46.632c0.71-0.947,0.888-2.127,0.888-3.279
			c0-2.605-1.246-7.578-4.912-7.578c-0.979,0-1.953,0.383-2.662,1.006c-1.157,1.035-1.363,2.336-1.363,3.611
			c0,2.924,1.45,7.746,5.031,7.746C74.325,48.14,75.505,47.577,76.187,46.632z"/>
		<path fill="#FFFFFF" d="M63.389,47.999l-3.966,0.908c-1.607,0.254-3.051,0.477-4.58,0.477c-7.653,0-10.567-5.633-10.567-10.039
			c0-5.385,4.131-10.375,11.205-10.375c1.496,0,2.938,0.221,4.25,0.577c2.079,0.584,3.05,1.304,3.659,1.728l-2.304,2.188
			l-0.971,0.219l0.692-1.107c-0.939-0.916-2.663-2.605-5.936-2.605c-4.377,0-7.68,3.326-7.68,8.184
			c0,5.217,3.771,10.123,9.816,10.123c1.776,0,2.69-0.354,3.522-0.688v-4.475l-4.189,0.229l2.221-1.193h5.877l-0.718,0.693
			c-0.194,0.162-0.22,0.219-0.274,0.438c-0.028,0.254-0.055,1.059-0.055,1.34v3.383h-0.002V47.999z"/>
	</g>
	<g>
		<path fill="#FFFFFF" d="M137.741,46.782v7.537h-1.494V35.142h1.494v2.184c0.977-1.41,2.758-2.531,4.826-2.531
			c3.715,0,6.213,2.816,6.213,7.273c0,4.428-2.498,7.303-6.213,7.303C140.612,49.372,138.864,48.364,137.741,46.782z
			 M147.172,42.069c0-3.361-1.752-5.922-4.858-5.922c-1.926,0-3.771,1.516-4.573,2.836v6.141c0.803,1.322,2.647,2.895,4.573,2.895
			C145.42,48.019,147.172,45.433,147.172,42.069z"/>
		<path fill="#FFFFFF" d="M150.825,49.024V29.846h1.493v19.177h-1.493V49.024z"/>
		<path fill="#FFFFFF" d="M169.114,53.081c0.319,0.139,0.866,0.229,1.213,0.229c0.918,0,1.553-0.373,2.125-1.697l1.096-2.471
			l-5.898-14h1.67l5.059,12.129l5.008-12.129h1.693l-7.189,16.938c-0.747,1.742-1.919,2.584-3.531,2.584
			c-0.486,0-1.124-0.09-1.499-0.201L169.114,53.081z"/>
		<path fill="#FFFFFF" d="M164.741,48.983c-0.099-0.48-0.176-0.904-0.23-1.26c-0.045-0.354-0.071-0.715-0.071-1.082
			c-0.514,0.754-1.237,1.381-2.168,1.875c-0.929,0.494-1.812,0.74-3.024,0.74c-1.455,0-2.59-0.359-3.397-1.086
			c-0.804-0.73-1.209-1.713-1.209-2.959c0-1.244,0.586-2.254,1.757-3.025c1.169-0.775,2.68-1.164,4.551-1.164h3.492V39.3
			c0-0.994-0.339-1.773-1.015-2.34c-0.681-0.568-1.63-0.855-2.866-0.855c-1.129,0-2.044,0.26-2.742,0.773
			c-0.689,0.52-1.037,1.166-1.037,1.945h-1.531l-0.031-0.076c-0.059-1.047,0.423-1.969,1.443-2.762
			c1.014-0.793,2.346-1.193,3.982-1.193c1.631,0,2.952,0.395,3.947,1.178c0.996,0.775,1.494,1.896,1.494,3.365v6.85
			c0,0.49,0.021,0.965,0.082,1.43c0.065,0.463,0.166,0.928,0.301,1.373h-1.725v-0.004H164.741z M159.431,47.892
			c1.271,0,2.187-0.281,3.121-0.846c0.928-0.559,1.557-1.287,1.889-2.17v-2.664h-3.507c-1.341,0-2.447,0.295-3.32,0.895
			c-0.875,0.598-1.318,1.316-1.318,2.158c0,0.791,0.279,1.424,0.839,1.902C157.689,47.649,158.454,47.892,159.431,47.892z"/>
	</g>
</g>
<g>
	<polygon fill="none" points="24.732,41.286 29.533,36.483 29.531,36.483 24.732,41.286 9.406,25.963 9.406,25.963 24.732,41.29 
		9.381,56.64 9.381,56.64 24.732,41.29 29.554,46.112 29.556,46.112 	"/>
	
		<linearGradient id="SVGID_1_" gradientUnits="userSpaceOnUse" x1="889.646" y1="-228.7935" x2="869.4096" y2="-241.4581" gradientTransform="matrix(0.7071 0.7071 -0.7071 0.7071 -769.3484 -427.2344)">
		<stop  offset="0" style="stop-color:#D6FFA1"/>
		<stop  offset="0.3264" style="stop-color:#93E2A7"/>
		<stop  offset="1" style="stop-color:#00A3B5"/>
	</linearGradient>
	<path fill="url(#SVGID_1_)" d="M29.531,36.483L10.823,26.196c-0.529-0.289-1.02-0.356-1.417-0.233l15.326,15.323L29.531,36.483z"/>
	
		<linearGradient id="SVGID_2_" gradientUnits="userSpaceOnUse" x1="877.8853" y1="-239.6104" x2="904.1152" y2="-232.7534" gradientTransform="matrix(0.7071 0.7071 -0.7071 0.7071 -769.3484 -427.2344)">
		<stop  offset="0" style="stop-color:#FF177B"/>
		<stop  offset="0.6721" style="stop-color:#FFA976"/>
		<stop  offset="1" style="stop-color:#FFEC73"/>
	</linearGradient>
	<path fill="url(#SVGID_2_)" d="M29.556,46.112l6.386-3.514c1.296-0.717,1.296-1.877,0-2.59l-6.411-3.525l-4.801,4.801
		L29.556,46.112z"/>
	
		<linearGradient id="SVGID_3_" gradientUnits="userSpaceOnUse" x1="892.5278" y1="-219.1885" x2="864.0764" y2="-235.9276" gradientTransform="matrix(0.7071 0.7071 -0.7071 0.7071 -769.3484 -427.2344)">
		<stop  offset="0" style="stop-color:#63FFD4"/>
		<stop  offset="0.4854" style="stop-color:#32A0BA"/>
		<stop  offset="0.8349" style="stop-color:#1262A9"/>
		<stop  offset="1" style="stop-color:#064AA2"/>
	</linearGradient>
	<path fill="url(#SVGID_3_)" d="M9.406,25.963c-0.57,0.179-0.937,0.754-0.937,1.626l0.002,27.432c0,0.859,0.357,1.43,0.91,1.619
		l15.351-15.35L9.406,25.963z"/>
	
		<linearGradient id="SVGID_4_" gradientUnits="userSpaceOnUse" x1="902.8569" y1="-232.4785" x2="885.3385" y2="-209.3989" gradientTransform="matrix(0.7071 0.7071 -0.7071 0.7071 -769.3484 -427.2344)">
		<stop  offset="0" style="stop-color:#FF4521"/>
		<stop  offset="0.3411" style="stop-color:#D43E65"/>
		<stop  offset="0.7935" style="stop-color:#9F36B9"/>
		<stop  offset="1" style="stop-color:#8A33DB"/>
	</linearGradient>
	<path fill="url(#SVGID_4_)" d="M9.381,56.64c0.398,0.137,0.898,0.072,1.441-0.227l18.732-10.301l-4.822-4.822L9.381,56.64z"/>
</g>
<g>
	<g>
		<path fill="#FFFFFF" d="M44.239,14.114c0-2.947,2.19-4.842,4.913-4.842c1.825,0,3.017,0.871,3.762,1.937l-1.333,0.774
			c-0.506-0.703-1.391-1.25-2.429-1.25c-1.851,0-3.229,1.405-3.229,3.382c0,1.952,1.376,3.382,3.229,3.382
			c0.955,0,1.796-0.435,2.216-0.842V15.21h-2.806v-1.446h4.436v3.494c-0.913,1.026-2.232,1.713-3.846,1.713
			C46.429,18.971,44.239,17.048,44.239,14.114z"/>
		<path fill="#FFFFFF" d="M55.03,18.789V9.426h6.413v1.447h-4.772v2.413h4.675v1.445h-4.675v2.611h4.772v1.446L55.03,18.789
			L55.03,18.789z"/>
		<path fill="#FFFFFF" d="M65.987,18.789v-7.916h-2.835V9.428h7.312v1.445H67.63v7.916H65.987z"/>
		<path fill="#FFFFFF" d="M76.172,18.789V9.426h1.641v9.363H76.172z"/>
		<path fill="#FFFFFF" d="M82.387,18.789v-7.916h-2.835V9.428h7.312v1.445h-2.835v7.916H82.387z"/>
		<path fill="#FFFFFF" d="M92.165,14.114c0-2.793,1.979-4.842,4.787-4.842c2.793,0,4.787,2.049,4.787,4.842
			c0,2.794-1.994,4.842-4.787,4.842C94.143,18.956,92.165,16.908,92.165,14.114z M100.054,14.114c0-1.937-1.222-3.382-3.103-3.382
			c-1.896,0-3.102,1.445-3.102,3.382c0,1.922,1.207,3.382,3.102,3.382C98.831,17.497,100.054,16.037,100.054,14.114z"/>
		<path fill="#FFFFFF" d="M110.182,18.789l-4.883-6.695v6.695h-1.643V9.426h1.686l4.785,6.486V9.426h1.645v9.363H110.182z"/>
	</g>
</g>
</svg>
